<?xml version="1.0" encoding="utf-8"?>
<!-- Generator: Adobe Illustrator 19.0.0, SVG Export Plug-In . SVG Version: 6.00 Build 0)  -->
<svg version="1.1" id="Layer_1" xmlns="http://www.w3.org/2000/svg" xmlns:xlink="http://www.w3.org/1999/xlink" x="0px" y="0px"
	 viewBox="0 0 1108 504" style="enable-background:new 0 0 1108 504;" xml:space="preserve">
<style type="text/css">
	.st0{fill:#B28B67;}
	.st1{fill:#191847;}
	.st2{fill:#2F3676;}
	.st3{fill:#E4E4E4;}
	.st4{fill:#997659;}
	.st5{fill:#5C63AB;}
	.st6{fill:#DB2721;}
	.st7{fill:#DDE3E9;}
	.st8{fill:#FF4133;}
	.st9{fill:#784931;}
	.st10{fill:#C5CFD6;}
	.st11{fill:#323337;}
	.st12{fill:#1F28CF;}
	.st13{fill:#2B44FF;}
	.st14{fill:#2026A2;}
	.st15{fill-opacity:0.1;}
	.st16{fill:#FFFFFF;fill-opacity:0.2;}
</style>
<g id="humaaans_x2F_standing-9">
	<g id="A-Human_x2F_Standing" transform="translate(40.000000, 27.000000)">
		<g id="Head_x2F_Front_x2F_Airy" transform="translate(82.000000, 0.000000)">
			<g id="Head" transform="translate(54.000000, 31.000000)">
				<path class="st0" d="M780.3,58.5c-4.6-5.4-7.7-12-7.2-19.5c1.5-21.4,31.3-16.7,37.1-5.9c5.8,10.8,5.1,38.2-2.4,40.1
					c-3,0.8-9.3-1.1-15.8-5L796,97h-24L780.3,58.5z"/>
			</g>
			<path id="hair" class="st1" d="M850.5,51.7c-3.2-0.5-11.7-0.9-13.3-0.9c-1,0-2.1,0.2-2.7-0.7c-0.5-0.8-0.3-2-0.5-2.9
				c-0.2-1-0.4-2-0.7-3c-0.7-2.9-1.7-5.6-3.2-8.1c-2.7-4.8-6.7-8.5-11.8-10.7c-5.6-2.4-11.9-3-17.9-2.5c-6.4,0.5-12.3,2.6-18.3,4.6
				c-5.8,1.9-11.9,2.7-17.9,1.7c-6.1-0.9-10.7-4.2-15.9-7.4c-5.3-3.2-11.3-5.3-17.5-4.8c-5.8,0.5-11.2,2.9-16,6.1
				c-4.5,3-8.2,6.6-10.3,11.7c-2.3,5.5-2.3,11.5,1.5,16.3c5.4,7,15.4,8.8,23.7,8.6c4.8-0.1,9.5-1,14.1-2.6c6-2.1,11.3-5.7,16.9-8.7
				c2.7-1.4,5.4-2.5,8.3-3.3c2.8-0.8,5.5-1.1,8.1,0.5c2.7,1.8,5.1,3.5,8.1,4.7c2.9,1.1,6,1.7,9.2,1.6c6.1,0,12.1-1.9,18-3.2
				c4.8-1,10-2.1,14.9-1.1c2,0.4,5,1.3,5.8,3.4c-12.5,2.3-17.3,17.7-13.8,29c1.9,6.1,13.3,13.2,17.7,10c2.8-2,1.1-4.7,0-6.5
				c-2.1-3.4-2.8-7.7,1.1-10.1c3.4-2,6.9,2.8,7,2.8c0.9-0.1,8.9-4.6,14.4-11.2c5.4,0.3,6.3-3.3,5-6.2
				C862.9,56.1,854.8,52.4,850.5,51.7z"/>
		</g>
		<g id="Bottom_x2F_Standing_x2F_Sprint" transform="translate(0.000000, 187.000000)">
			<path id="Leg" class="st0" d="M888.6,24c1.8,24.6,118,97.1,118.6,99.1c0.3,0.9-11.8,29.5-36.2,85.7l10.2,3.9
				c37.4-59.5,55.2-92.5,53.3-98.8c-2.8-9.1-32.8-39-90.1-89.6L888.6,24z"/>
			<path id="Pant" class="st2" d="M973.8,196.1l16.6,6c35-39.4,48.7-72,46.2-88.6c-1.7-11.1-31.6-40.9-89.8-89.5l-59.3,0
				c2,57,109.7,99.3,111.1,101.7S985.9,152,973.8,196.1z"/>
			
				<g id="Accessories_x2F_Shoe_x2F_Flat-Sneaker" transform="translate(223.383915, 187.279121) rotate(20.000000) translate(-223.383915, -187.279121) translate(192.883915, 167.279121)">
				<path id="shoe" class="st3" d="M736.3-216.1c-1.1,3-1.7,5.2-1.7,6.7c0,1.8,0.3,4.4,0.9,7.9c2.1,0,20.9,0,56.4,0
					c1.5-4.8,0.6-7.5-2.5-7.8c-3.2-0.4-5.8-0.7-7.9-1l-26.2-11.7c-0.5-0.2-1.1,0-1.3,0.5c0,0,0,0,0,0l-1.7,4.1c-2.9,1.4-5.3,2-7.1,2
					c-1.5,0-3.5-0.6-6.2-1.8v0c-1-0.5-2.2,0-2.7,1C736.4-216.2,736.3-216.1,736.3-216.1z"/>
			</g>
			<polygon id="Leg_1_" class="st4" points="902,24 850.3,148.2 799.4,253.3 811.4,253.3 942.7,24 			"/>
			<g id="Accessories_x2F_Shoe_x2F_Flat-Sneaker_1_" transform="translate(24.000000, 199.000000)">
				<path id="shoe_1_" class="st3" d="M774.7,49.4c-1.1,3-1.7,5.2-1.7,6.7c0,1.8,0.3,4.4,0.9,7.9c2.1,0,20.9,0,56.4,0
					c1.5-4.8,0.6-7.5-2.5-7.8c-3.2-0.4-5.8-0.7-7.9-1l-26.2-11.7c-0.5-0.2-1.1,0-1.3,0.5c0,0,0,0,0,0l-1.7,4.1c-2.9,1.4-5.3,2-7.1,2
					c-1.5,0-3.5-0.6-6.2-1.8v0c-1-0.5-2.2,0-2.7,1C774.7,49.3,774.7,49.4,774.7,49.4z"/>
			</g>
			<path id="Pant_1_" class="st5" d="M804,231.4l26.7,5C851.3,206.1,937.5,81.9,947,24h-59.4C856.1,65.8,823.6,200.6,804,231.4z"/>
		</g>
		<g id="Body_x2F_Jacket-2" transform="translate(22.000000, 82.000000)">
			<path id="Skin" class="st0" d="M970,101.6l36.2-15.9c6.3-6.3,12.5-11.1,18.4-14.4c1.8-0.6,4.8-0.7,1.6,4
				c-3.2,4.7-6.4,9.8-5.1,11.5c1.3,1.6,5-0.2,6.5,2.5c1,1.8-5.3,3.9-18.9,6.4l-27.1,20.8L970,101.6z M823.5,106l20.5,4.1
				c-20.6,38.4-31.7,58.8-33.2,61.1c-3.4,5.2-0.2,14.7,0.9,19.7c-7.3,1.7-4.4-9.3-13.6-7c-8.4,2.1-15.5,7.4-23.4,0.2
				c-1-0.9-1.7-3.7,1.6-5.1c8.2-3.5,20.3-10.2,22.2-12.8C801.3,162.7,809.6,142.6,823.5,106z"/>
			<path id="Coat-Back" class="st6" d="M899.7,29.3l8.6-1.5c18.8,18.3,26.5,62.2,39.1,68c11.9,5.5,28.7,0.2,48.7-7l6.1,13.7
				c-18.2,19.7-56.9,36.3-72.6,26.8C904.6,114.1,898.8,60,899.7,29.3z"/>
			<path id="Shirt" class="st7" d="M862,138c34.7,0,60.2,0,76.5,0c3.5,0,2.8-5,2.3-7.6C935,101,912.2,69.3,912.2,27.5L890.2,24
				C871.9,53.4,865.6,89.5,862,138z"/>
			<path id="Coat-Front" class="st8" d="M854.4,108.2c-15.6,28.1-28.7,48.4-39.3,60.8l-16-3.1c10.3-64.1,40.2-111.4,89.7-141.9h0.3
				h8.5c19.8,67.5,25.3,112.5,16.4,135H845C846.1,142.6,849.6,125.2,854.4,108.2z"/>
		</g>
	</g>
</g>
<g id="humaaans_x2F_standing-17">
	<g id="humaaan-1" transform="translate(28.000000, 2.000000)">
		
			<g id="Head_x2F_Front_x2F_Chongo" transform="translate(133.219486, 73.532869) rotate(-15.000000) translate(-133.219486, -73.532869) translate(59.569689, 17.301852)">
			<g id="Head_1_" transform="translate(58.494090, 33.282773)">
				<path class="st9" d="M252.3,131.1c-4.3-5-7.2-11.1-6.7-17.9c1.4-19.7,29-15.3,34.4-5.4c5.4,9.9,4.7,35.1-2.2,36.9
					c-2.8,0.7-8.7-1-14.7-4.6l3.8,26.4h-22.2L252.3,131.1z"/>
			</g>
			<path id="hair_1_" class="st1" d="M329.7,130.3c-3-0.9-7.4-1.2-9.3-1c1.1-2.5,1.5-5.3,1.1-8c-0.3-2.6-1.5-4.9-2.6-7.2
				c-0.5-1.1-1.1-2.2-1.9-3c-0.9-0.8-2-1.4-3.1-1.7c-1.2-0.3-2.4-0.3-3.6,0c-0.5,0.1-1,0.3-1.5,0.5c-0.5,0.1-0.8-0.2-1.2-0.5
				c-0.9-0.8-2.3-1.2-3.4-1.3c-1.3-0.2-2.7,0-3.9,0.5c-1.2,0.4-2.4,1.1-3.3,2.1c-0.4,0.4-0.7,0.9-1,1.5c-0.1,0.2-0.1,0.4-0.3,0.4
				c-0.2,0.1-0.5,0.1-0.7,0.2c-2.1,0.7-3.9,2.3-4.9,4.4c-0.6,1.2-0.8,3.3-0.8,5.7c0.1,2.4,2.2,8.6,4.3,10.8c1.8,2,4.5,3.4,7,3.9
				c-1.7,1.9-2.8,4.3-3.7,6.8c-0.9,2.7-1.5,5.4-1.7,8.2c-0.2,2.7-0.2,5.5,0.4,8.1c0.6,2.5,1.9,4.5,4,5.7c1,0.6,2,1,3.1,1.4
				c1,0.4,2.1,0.8,3.2,1c2,0.4,4.4,0.3,6-1.3c0.6-0.6,1.2-1.3,1.6-2c0.1-0.3,0.2-0.4,0.1-0.7c-0.2-0.3-0.6-0.5-0.8-0.8
				c-1.6-1.3-2.6-3.1-2.8-5.2c-0.3-2.2,0.3-4.9,2.4-5.9c2.6-1.2,5.5,0.2,7.8,1.4c1-3.4,3-6.5,6.2-8.1c3.5-1.7,7.5-2,11.1-3.4
				c0.9-0.4,1.9-0.8,2.6-1.6c0.3-0.3,0.6-0.8,0.7-1.2c0.2-0.6-0.2-1.1-0.5-1.5C338.6,136.1,332.8,131.2,329.7,130.3z"/>
		</g>
		<g id="Bottom_x2F_Standing_x2F_Skinny-Jeans" transform="translate(0.000000, 218.435876)">
			<polygon id="Leg_3_" class="st1" points="397,9.1 430.6,126.6 455.1,213.1 473,213.1 446.9,9.1 			"/>
			<path id="Leg_2_" class="st2" d="M388,9.1c-0.8,60.5-3.4,93.5-4.2,99c-0.8,5.5-13.2,40.5-37,104.9h18.5
				c30.4-61.8,47.3-96.8,50.9-104.9S430.6,67,447,9.1H388z"/>
			<g id="Accessories_x2F_Shoe_x2F_Flat-Pointy" transform="translate(77.992120, 214.729269)">
				<path id="Shoe" class="st1" d="M267.1,15.2L268-4.3h19.5c9.2,6.5,21.3,11.7,36.1,15.8v3.7h-35.2l-12-1.9v1.9H267.1z"/>
			</g>
			<g id="Accessories_x2F_Shoe_x2F_Flat-Pointy_1_" transform="translate(203.646091, 214.729269)">
				<path id="Shoe_1_" class="st1" d="M248.9,15.2l0.9-19.5h19.5c9.2,6.5,21.3,11.7,36.1,15.8v3.7h-35.2l-12-1.9v1.9H248.9z"/>
			</g>
		</g>
		
			<g id="Body_x2F_Lab-Coat" transform="translate(161.379703, 207.081536) rotate(-10.000000) translate(-161.379703, -207.081536) translate(22.744790, 105.973841)">
			<path id="Skin_1_" class="st0" d="M445.7,151.2l28,23.6c7.8,2.7,14.3,5.8,19.5,9.4c1.2,1.2,2.6,3.7-2.7,2.9
				c-5.2-0.8-10.8-1.3-11.6,0.4c-0.9,1.7,2.2,4.1,0.5,6.4c-1.1,1.5-5.4-2.8-13-13l-28.4-14.1L445.7,151.2z M319.1,141l16.4,2.4
				c-17.6,38-27.1,58.1-28.3,60.3c-2.9,4.9,0.5,13.5,1.8,18.1c-6.7,1.9-4.5-8.3-12.9-5.8c-7.7,2.3-14,7.6-21.6,1.3
				c-0.9-0.8-1.7-3.3,1.2-4.8c7.4-3.7,18.3-10.4,20-12.8C297.9,196.4,305.7,176.8,319.1,141z"/>
			<path id="Coat-Back_1_" class="st10" d="M387.7,74.4l10.2-3.3c13.8,34.3,34.4,67.5,68.7,95.5l-8.5,14.6
				c-30.2-17.7-58.8-31.5-70.4-58C383.8,114.2,387.3,85.1,387.7,74.4z"/>
			<path id="Shirt_1_" class="st11" d="M352.7,171c29.1,3.1,52.1,3.1,68.8,0c2.1-0.4,2.4-3.8,1.4-6.2c-15-36.5-25.2-68.3-25.2-93.7
				c-2.7,1.4-7.6,1.6-14.4,0.6C364.9,97.8,356.4,127.8,352.7,171z"/>
			<path id="Coat-Front_1_" class="st7" d="M378.7,69.5h7.7c1.8,10.5,7.4,152.4,24.9,198.8l-94.3,0c2-42.5,18.2-93.6,34.5-136.3
				c-14.5,13.2-27,35.5-37.8,66.9l-17.7-4.5c13.1-56.3,40.1-97.7,81-124.2c0.1-0.2,0.2-0.4,0.3-0.6h0.7c0.3-0.2,0.5-0.3,0.8-0.5
				L378.7,69.5z"/>
		</g>
	</g>
</g>
<g id="humaaans_x2F_standing-13">
	<g id="humaaan-5" transform="translate(28.000000, 1.000000)">
		
			<g id="Head_x2F_Front_x2F_Long" transform="translate(133.250000, 73.538462) rotate(-15.000000) translate(-133.250000, -73.538462) translate(59.583333, 17.303167)">
			<path id="Hair-Back" class="st1" d="M586.1,194.9c3.7,13.5,8.7,44.5,3.7,49.3h-31.4c0-0.1,0-0.1,0-0.2
				c-11.6-1.3-20.7-11.2-20.7-23.1v-22.1c0-12.9,10.4-23.3,23.3-23.3h2.2C574.6,175.5,584.2,183.9,586.1,194.9z"/>
			<g id="Head_2_" transform="translate(58.494090, 33.282773)">
				<path class="st0" d="M491.4,183.5c-5-5.8-8.4-12.9-7.8-20.9c1.6-23,33.9-17.9,40.2-6.3c6.3,11.6,5.5,41-2.6,43.1
					c-3.2,0.8-10.1-1.2-17.1-5.4l4.4,30.9h-26L491.4,183.5z"/>
			</g>
			<path id="Hair-Front" class="st1" d="M556.9,212.9c1.2,12.8,0.7,27.3-2.9,30.8h-31.4c-1.8-30.1,15.2-18.5,15.2-46.8
				c1.1-1,2.1-2,3-2.9l0-0.8c5.4-11,12.3-16.6,20.7-16.6c12.5,0,16.5,5.8,19.9,10.7c-2.5,8.6-12.3,9.8-21,15.2
				c-1-0.8-2.3-1.3-3.8-1.3c-3.3,0-6,2.6-6,5.9s2.7,5.9,6,5.9C556.7,212.9,556.8,212.9,556.9,212.9z"/>
		</g>
		<g id="Bottom_x2F_Standing_x2F_Skirt" transform="translate(0.000000, 218.452489)">
			<path id="Skirt-Shadow" class="st12" d="M609.4,122.5c26,7.2,48.4,10.9,67.3,10.9c18.9,0,36.4-5.6,52.5-16.7
				c-25.4-7.4-46.4-11.1-62.8-11.1C649.9,105.5,630.9,111.1,609.4,122.5z"/>
			<path id="Leg_5_" class="st4" d="M699.1,143.8c-0.3-0.4-0.5-0.8-0.6-1.2c-3.5-9.2-59.1-107.9-64.7-125.9h62.6
				c4.2,13.7,23.2,99.8,25.9,117c8.4,27.1,25.8,114.9,28,120.9c2.3,6.4-10.8,13.1-14.3,5.2c-5.6-12.5-18.8-47.1-24.7-68.3
				C705.8,171.7,701.4,153.9,699.1,143.8z"/>
			<path id="Leg_4_" class="st0" d="M647.9,155.8c-25.4,6.4-118.5,18-124.9,19.8c-6.6,1.9-12.3-11.6-4.2-14.5
				c12.9-4.6,48.5-15.4,70.1-19.8c17.4-3.5,33.2-6.4,43.8-8.1c-0.9-29.8-5-101.2-2.3-116.6h55.4c-2.6,14.8-24.5,122.7-28.5,133.5
				C656,154,652.2,155.7,647.9,155.8z"/>
			
				<g id="Accessories_x2F_Shoe_x2F_Flat-Sneaker_3_" transform="translate(26.538985, 169.409524) rotate(80.000000) translate(-26.538985, -169.409524) translate(-6.499343, 147.828693)">
				<path id="shoe_3_" class="st3" d="M106.8-465.8c-1.2,3.2-1.8,5.7-1.8,7.3c0,2,0.3,4.8,1,8.6c2.3,0,22.6,0,61.1,0
					c1.6-5.2,0.7-8.1-2.7-8.5s-6.3-0.8-8.5-1.1l-28.4-12.7c-0.5-0.2-1.2,0-1.4,0.5c0,0,0,0,0,0l-1.8,4.4c-3.2,1.5-5.7,2.2-7.7,2.2
					c-1.6,0-3.8-0.6-6.7-1.9l0,0c-1.1-0.5-2.4,0-2.9,1.1C106.8-465.9,106.8-465.9,106.8-465.8z"/>
			</g>
			<g id="Accessories_x2F_Shoe_x2F_Flat-Sneaker_2_" transform="translate(225.310568, 214.729269)">
				<path id="shoe_2_" class="st3" d="M506.8,44.2c-1.2,3.2-1.8,5.7-1.8,7.3c0,2,0.3,4.8,1,8.6c2.3,0,22.6,0,61.1,0
					c1.6-5.2,0.7-8.1-2.7-8.5s-6.3-0.8-8.5-1.1l-28.4-12.7c-0.5-0.2-1.2,0-1.4,0.5c0,0,0,0,0,0l-1.8,4.4c-3.2,1.5-5.7,2.2-7.7,2.2
					c-1.6,0-3.8-0.6-6.7-1.9v0c-1.1-0.5-2.4,0-2.9,1.1C506.8,44.1,506.8,44.1,506.8,44.2z"/>
			</g>
			<path id="Skirt" class="st13" d="M630.6,16.6c24.4-7,47.5-7,69.3,0c7.6,34.5,26,48.1,29.2,101c-36.8,18.2-82.3-13-120.2,4.8
				C598.1,97.5,613.3,37.6,630.6,16.6z"/>
		</g>
		
			<g id="Body_x2F_Pointing-Forward" transform="translate(161.416667, 207.097285) rotate(-10.000000) translate(-161.416667, -207.097285) translate(22.750000, 105.981900)">
			<path id="Skin_2_" class="st4" d="M665.2,149.9l37.6-20.5c6.3-7.4,12.4-13.1,18.5-17.2c1.9-0.8,5.1-1.2,2.1,4.1
				c-3,5.4-6,11.1-4.4,12.8c1.5,1.7,5.4-0.7,7.2,2.1c1.2,1.8-5.4,4.7-19.7,8.7l-27.3,24.9L665.2,149.9z M724.1,167.2l16.5-9
				c2.3-8.8,5.1-13.2,8.3-13.2c2.5-1.1-1.8,9.9,2.9,9c4.7-1,16.1-9.4,18.1-7.7c2.9,2.5,0.3,10.4-2.8,14.3c-5.7,7.3-10.5,9.8-22.2,13
				c-6.1,1.7-12.8,5.1-19.9,10.2L724.1,167.2z"/>
			<path id="Sleeve" class="st14" d="M646.9,145.3c13.2-0.1,30.7-2.9,49.5-14.7l7.4,16.3c-12.9,12.8-31.1,23.3-47,22.8
				C644.2,169.4,637.8,154.3,646.9,145.3z"/>
			<path id="Clothes" class="st12" d="M664.6,171.5c14,3.5,37.4-0.6,70.3-12.3c8.2,16.8,11.9,28.8,11.3,35.9
				c-28.2,14.7-52.4,21.2-72.4,21.6c0.6,11.8-0.8,23-5.6,33.2c-9.9,21-68.2,1.6-87.7,5.4c-12.3-39.6,11.4-55.7,11.5-81.1
				c0-27.8,22.4-70.5,25.7-70.5l30.1,0C649.4,125.1,657.7,148.5,664.6,171.5z"/>
		</g>
	</g>
</g>
<g id="humaaans_x2F_standing-18">
	<g id="humaaan-2" transform="translate(28.000000, 9.000000)">
		<g id="Head_x2F_Front_x2F_Airy_1_" transform="translate(88.812991, 0.000000)">
			<g id="Head_3_" transform="translate(58.494090, 33.579940)">
				<path class="st0" d="M15,47c-5-5.9-8.4-13-7.8-21.1C8.8,2.7,41.1,7.8,47.4,19.5s5.5,41.4-2.6,43.5c-3.2,0.8-10.1-1.2-17.1-5.4
					L32,88.7H6L15,47z"/>
			</g>
			<path id="hair_2_" class="st1" d="M91,39.6c-3.4-0.6-12.7-0.9-14.4-0.9c-1.1,0-2.3,0.2-2.9-0.7c-0.5-0.8-0.3-2.2-0.5-3.1
				c-0.2-1.1-0.4-2.2-0.7-3.3c-0.7-3.1-1.9-6-3.5-8.8c-3-5.2-7.3-9.2-12.8-11.6c-6.1-2.6-12.9-3.2-19.4-2.7c-7,0.6-13.3,2.9-19.9,5
				c-6.3,2.1-12.8,2.9-19.4,1.9c-6.6-1-11.6-4.6-17.2-8c-5.7-3.5-12.2-5.8-19-5.2c-6.3,0.5-12.1,3.1-17.3,6.6
				c-4.9,3.3-8.9,7.2-11.2,12.7c-2.4,5.9-2.4,12.4,1.6,17.7c5.8,7.6,16.6,9.5,25.6,9.4c5.2-0.1,10.3-1.1,15.2-2.8
				c6.5-2.3,12.2-6.2,18.3-9.4c2.9-1.5,5.8-2.7,9-3.6c3-0.9,6-1.2,8.7,0.6c2.9,1.9,5.5,3.8,8.8,5c3.2,1.2,6.5,1.8,9.9,1.8
				c6.6-0.1,13.1-2.1,19.5-3.5c5.2-1.1,10.8-2.2,16.1-1.2c2.2,0.4,5.5,1.4,6.3,3.7c-13.5,2.4-18.8,19.1-15,31.4
				c2.1,6.6,14.4,14.3,19.2,10.9c3-2.2,1.2-5.1,0-7c-2.3-3.7-3.1-8.3,1.2-10.9c3.7-2.2,7.5,3,7.6,3c1-0.1,9.7-5,15.6-12.1
				c5.9,0.3,6.8-3.5,5.4-6.7C104.6,44.4,95.8,40.4,91,39.6z"/>
		</g>
		<g id="Bottom_x2F_Standing_x2F_Jogging" transform="translate(0.000000, 202.587623)">
			<polygon id="Leg_7_" class="st4" points="146.9,9.6 227.4,144.2 287.7,258 300.7,258 199.6,9.6 			"/>
			<g id="Accessories_x2F_Shoe_x2F_Flat-Sneaker_5_" transform="translate(270.805972, 215.561553)">
				<path id="shoe_5_" class="st3" d="M8.9,37.1c-1.2,3.2-1.8,5.7-1.8,7.3c0,2,0.3,4.8,1,8.6c2.3,0,22.6,0,61.1,0
					c1.6-5.2,0.7-8.1-2.7-8.5c-3.4-0.4-6.3-0.8-8.5-1.1L29.5,30.7c-0.5-0.2-1.2,0-1.4,0.5c0,0,0,0,0,0l-1.8,4.4
					c-3.2,1.5-5.7,2.2-7.7,2.2c-1.6,0-3.8-0.6-6.7-1.9l0,0c-1.1-0.5-2.4,0-2.9,1.1C9,37.1,9,37.1,8.9,37.1z"/>
			</g>
			<path id="Pant_3_" class="st6" d="M270.9,239.7l25.1-7.6c-11-32.8-24.4-69-40.4-108.4c-15.9-39.4-33.1-77.5-51.4-114.1h-70.8
				c20.3,46.4,41.9,88.5,64.7,126.4S245.2,208.5,270.9,239.7z"/>
			<path id="Leg_6_" class="st0" d="M141.6,9.6c-7.6,47.3-22.2,107.7-23.6,109.6c-0.9,1.2-34.1,12.4-99.6,33.4l2.8,11.5
				c78.1-11.3,119.2-20,123.4-26.2c6.3-9.3,37.8-82.9,50-128.2H141.6z"/>
			<path id="Pant_2_" class="st8" d="M41.4,142.7l4.9,18.5c58.4,5.1,94.1,1.4,107.3-11.1c13.2-12.5,28.2-59.3,45-140.4h-67.5
				c-10.7,66.4-16.6,101-17.9,103.8C112,116.2,88,125.9,41.4,142.7z"/>
			
				<g id="Accessories_x2F_Shoe_x2F_Flat-Sneaker_4_" transform="translate(26.538985, 166.816479) rotate(80.000000) translate(-26.538985, -166.816479) translate(-6.499343, 145.152001)">
				<path id="shoe_4_" class="st3" d="M13.4,23.2c-1.2,3.2-1.8,5.7-1.8,7.3c0,2,0.3,4.8,1,8.6c2.3,0,22.6,0,61.1,0
					c1.6-5.2,0.7-8.1-2.7-8.5c-3.4-0.4-6.3-0.8-8.5-1.1L34,16.8c-0.5-0.2-1.2,0-1.4,0.5c0,0,0,0,0,0l-1.8,4.4C27.6,23.2,25,24,23,24
					c-1.6,0-3.8-0.6-6.7-1.9l0,0c-1.1-0.5-2.4,0-2.9,1.1C13.5,23.1,13.5,23.2,13.4,23.2z"/>
			</g>
		</g>
		<g id="Body_x2F_Jacket" transform="translate(23.827876, 88.835214)">
			<path id="Skin_3_" class="st0" d="M216.2,106.2l30.7,29.9c8.9,3.8,16.2,8,21.9,12.6c1.3,1.5,2.7,4.5-3.4,3.2
				c-6-1.3-12.4-2.5-13.6-0.5c-1.1,2,2.2,5,0.1,7.5c-1.4,1.7-6.1-3.7-14.1-16.3L206,123.8L216.2,106.2z M80,110.4l22.6,0.1
				c-14,45.1-21.5,69.1-22.6,71.8c-2.5,6.2,2.8,15.7,5.1,20.8c-7.4,3.3-6.6-8.9-15.9-4.6c-8.5,4-15,11.1-24.8,5.1
				c-1.2-0.7-2.5-3.6,0.7-5.7c8-5.5,19.5-15,21-18.2C68.2,175.3,72.8,152.2,80,110.4z"/>
			<path id="Coat-Back_2_" class="st1" d="M144.4,15.4l9.4-1.6c16.1,40.3,44.3,76.9,84.5,109.8l-30.4,36.9
				C167.7,113.6,142.9,65.3,144.4,15.4z"/>
			<path id="Shirt_2_" class="st7" d="M103.5,133.1h83.4c-19.3-47-29-86.9-29-119.7l-25.2-3.7C113,41.4,107.4,80.6,103.5,133.1z"/>
			<path id="Coat-Front_2_" class="st2" d="M132.3,9.6C132.3,9.6,132.3,9.6,132.3,9.6l1.7,0c2,0.1,5,0.2,9,0.4l6.1,17.4
				c0.6,21.2,4.4,63.9,11.3,128.1h-54.7c0.1,4.4,0.4,8.9,0.7,13.4H65.6C71.7,100.3,93.9,47.2,132.3,9.6
				C132.2,9.6,132.3,9.6,132.3,9.6z"/>
			<path id="Shade" class="st15" d="M109.2,98.7c1.6,27.6,5.5,46.7,11.7,57.2h-15.3C104.9,136,106.1,116.9,109.2,98.7z"/>
			<polygon id="Light" class="st16" points="117.7,122.3 144.7,109.8 144.7,122.3 			"/>
		</g>
	</g>
</g>
</svg>
