<?xml version="1.0" encoding="utf-8"?>
<!-- Generator: Adobe Illustrator 19.0.0, SVG Export Plug-In . SVG Version: 6.00 Build 0)  -->
<svg version="1.1" id="Layer_1" xmlns="http://www.w3.org/2000/svg" xmlns:xlink="http://www.w3.org/1999/xlink" x="0px" y="0px"
	 viewBox="0 0 34 34" style="enable-background:new 0 0 34 34;" xml:space="preserve">
<style type="text/css">
	.st0{fill:#C10C0C;}
	.st1{fill:#FFFFFF;}
	.st2{font-family:'Poppins-Bold';}
	.st3{font-size:25.5527px;}
</style>
<path class="st0" d="M-488,526.5v29c0,1.4-1.1,2.5-2.5,2.5h-29c-1.4,0-2.5-1.1-2.5-2.5v-29c0-1.4,1.1-2.5,2.5-2.5h29
	C-489.1,524-488,525.1-488,526.5z M-512,537h-5v16h5V537z M-511.5,531.5c0-1.6-1.3-2.9-2.9-2.9c0,0,0,0,0,0h-0.1
	c-1.6,0-2.9,1.3-2.9,2.9c0,1.6,1.3,2.9,2.9,2.9l0,0C-512.9,534.4-511.6,533.2-511.5,531.5C-511.6,531.6-511.6,531.6-511.5,531.5
	L-511.5,531.5z M-493,543.3c0-4.8-3.1-6.7-6.1-6.7c-2-0.1-4,0.9-5.1,2.6h-0.1V537h-4.7v16h5v-8.5c-0.2-1.8,1.2-3.4,3-3.6h0.2
	c1.6,0,2.8,1,2.8,3.5v8.6h5L-493,543.3z"/>
<rect x="0" y="0" class="st0" width="34" height="34"/>
<text transform="matrix(1.1146 0 0 1 -520.583 548.0371)" class="st1 st2 st3">zc</text>
</svg>
