<?xml version="1.0" encoding="UTF-8"?>
<svg xmlns="http://www.w3.org/2000/svg" xmlns:xlink="http://www.w3.org/1999/xlink" width="0pt" height="0" viewBox="0 0 23 7" version="1.1">
<g id="surface1">
<path style=" stroke:none;fill-rule:nonzero;fill:rgb(18.039216%,74.117647%,34.901961%);fill-opacity:1;" d="M 3.449219 0 C 1.542969 0 0 1.566406 0 3.5 C 0 5.433594 1.542969 7 3.449219 7 C 5.355469 7 6.898438 5.433594 6.898438 3.5 C 6.898438 1.566406 5.355469 0 3.449219 0 Z M 5.03125 5.046875 C 4.96875 5.152344 4.835938 5.183594 4.734375 5.121094 C 3.925781 4.617188 2.90625 4.503906 1.707031 4.78125 C 1.589844 4.808594 1.472656 4.738281 1.449219 4.617188 C 1.421875 4.5 1.492188 4.382812 1.609375 4.359375 C 2.921875 4.054688 4.050781 4.183594 4.960938 4.746094 C 5.0625 4.8125 5.09375 4.945312 5.03125 5.046875 Z M 5.453125 4.09375 C 5.375 4.222656 5.210938 4.265625 5.082031 4.183594 C 4.15625 3.605469 2.742188 3.4375 1.644531 3.777344 C 1.503906 3.820312 1.355469 3.738281 1.3125 3.59375 C 1.269531 3.449219 1.347656 3.296875 1.488281 3.253906 C 2.742188 2.871094 4.300781 3.054688 5.363281 3.71875 C 5.492188 3.800781 5.53125 3.96875 5.453125 4.09375 Z M 5.488281 3.101562 C 4.378906 2.433594 2.542969 2.371094 1.480469 2.699219 C 1.3125 2.75 1.132812 2.652344 1.078125 2.480469 C 1.027344 2.308594 1.125 2.125 1.296875 2.070312 C 2.511719 1.695312 4.539062 1.769531 5.820312 2.539062 C 5.972656 2.632812 6.023438 2.832031 5.929688 2.988281 C 5.839844 3.144531 5.640625 3.195312 5.488281 3.101562 Z M 9.382812 3.230469 C 8.789062 3.085938 8.683594 2.984375 8.683594 2.773438 C 8.683594 2.574219 8.867188 2.4375 9.144531 2.4375 C 9.414062 2.4375 9.679688 2.539062 9.960938 2.75 C 9.96875 2.757812 9.980469 2.761719 9.988281 2.757812 C 10 2.757812 10.007812 2.75 10.015625 2.742188 L 10.304688 2.328125 C 10.316406 2.308594 10.316406 2.285156 10.296875 2.273438 C 9.964844 2.003906 9.59375 1.871094 9.15625 1.871094 C 8.511719 1.871094 8.0625 2.261719 8.0625 2.824219 C 8.0625 3.421875 8.449219 3.636719 9.121094 3.800781 C 9.691406 3.933594 9.785156 4.042969 9.785156 4.246094 C 9.785156 4.464844 9.589844 4.601562 9.277344 4.601562 C 8.929688 4.601562 8.648438 4.484375 8.328125 4.207031 C 8.320312 4.199219 8.3125 4.195312 8.300781 4.195312 C 8.289062 4.195312 8.28125 4.203125 8.273438 4.210938 L 7.949219 4.605469 C 7.933594 4.621094 7.9375 4.644531 7.953125 4.660156 C 8.320312 4.992188 8.773438 5.167969 9.265625 5.167969 C 9.957031 5.167969 10.40625 4.785156 10.40625 4.191406 C 10.40625 3.6875 10.109375 3.410156 9.386719 3.230469 Z M 11.972656 2.636719 C 11.671875 2.636719 11.425781 2.753906 11.222656 3 L 11.222656 2.722656 C 11.222656 2.703125 11.207031 2.683594 11.183594 2.683594 L 10.652344 2.683594 C 10.628906 2.683594 10.613281 2.703125 10.613281 2.722656 L 10.613281 5.800781 C 10.613281 5.824219 10.628906 5.839844 10.652344 5.839844 L 11.183594 5.839844 C 11.207031 5.839844 11.222656 5.824219 11.222656 5.800781 L 11.222656 4.828125 C 11.425781 5.0625 11.671875 5.175781 11.972656 5.175781 C 12.53125 5.175781 13.097656 4.738281 13.097656 3.90625 C 13.097656 3.070312 12.53125 2.636719 11.972656 2.636719 Z M 12.476562 3.90625 C 12.476562 4.328125 12.21875 4.625 11.851562 4.625 C 11.484375 4.625 11.210938 4.316406 11.210938 3.90625 C 11.210938 3.492188 11.484375 3.183594 11.851562 3.183594 C 12.210938 3.183594 12.476562 3.488281 12.476562 3.90625 Z M 14.542969 2.636719 C 13.824219 2.636719 13.261719 3.195312 13.261719 3.914062 C 13.261719 4.621094 13.820312 5.179688 14.535156 5.179688 C 15.257812 5.179688 15.820312 4.617188 15.820312 3.90625 C 15.820312 3.191406 15.261719 2.636719 14.542969 2.636719 Z M 14.542969 4.628906 C 14.164062 4.628906 13.875 4.316406 13.875 3.90625 C 13.875 3.488281 14.152344 3.1875 14.535156 3.1875 C 14.921875 3.1875 15.210938 3.5 15.210938 3.914062 C 15.210938 4.328125 14.929688 4.628906 14.542969 4.628906 Z M 17.355469 2.683594 L 16.769531 2.683594 L 16.769531 2.074219 C 16.769531 2.054688 16.753906 2.035156 16.730469 2.035156 L 16.199219 2.035156 C 16.175781 2.035156 16.160156 2.054688 16.160156 2.074219 L 16.160156 2.683594 L 15.902344 2.683594 C 15.878906 2.683594 15.863281 2.703125 15.863281 2.722656 L 15.863281 3.1875 C 15.863281 3.210938 15.878906 3.230469 15.902344 3.230469 L 16.160156 3.230469 L 16.160156 4.433594 C 16.160156 4.917969 16.398438 5.164062 16.867188 5.164062 C 17.058594 5.164062 17.21875 5.125 17.367188 5.039062 C 17.378906 5.03125 17.386719 5.019531 17.386719 5.003906 L 17.386719 4.5625 C 17.386719 4.546875 17.378906 4.535156 17.367188 4.527344 C 17.355469 4.519531 17.34375 4.519531 17.332031 4.527344 C 17.226562 4.578125 17.128906 4.601562 17.015625 4.601562 C 16.847656 4.601562 16.769531 4.523438 16.769531 4.347656 L 16.769531 3.230469 L 17.355469 3.230469 C 17.378906 3.230469 17.394531 3.210938 17.394531 3.191406 L 17.394531 2.722656 C 17.394531 2.703125 17.378906 2.683594 17.355469 2.683594 Z M 19.402344 2.6875 L 19.402344 2.613281 C 19.402344 2.390625 19.484375 2.292969 19.671875 2.292969 C 19.78125 2.292969 19.871094 2.316406 19.972656 2.351562 C 19.984375 2.355469 19.996094 2.351562 20.007812 2.34375 C 20.015625 2.335938 20.023438 2.324219 20.023438 2.3125 L 20.023438 1.855469 C 20.023438 1.839844 20.011719 1.824219 19.996094 1.820312 C 19.890625 1.785156 19.753906 1.753906 19.550781 1.753906 C 19.058594 1.753906 18.796875 2.035156 18.796875 2.566406 L 18.796875 2.683594 L 18.542969 2.683594 C 18.519531 2.683594 18.503906 2.699219 18.503906 2.722656 L 18.503906 3.1875 C 18.503906 3.210938 18.519531 3.230469 18.542969 3.230469 L 18.796875 3.230469 L 18.796875 5.085938 C 18.796875 5.105469 18.816406 5.125 18.835938 5.125 L 19.371094 5.125 C 19.390625 5.125 19.410156 5.105469 19.410156 5.085938 L 19.410156 3.230469 L 19.90625 3.230469 L 20.671875 5.085938 C 20.582031 5.28125 20.5 5.320312 20.382812 5.320312 C 20.289062 5.320312 20.191406 5.289062 20.089844 5.234375 C 20.078125 5.226562 20.066406 5.226562 20.058594 5.230469 C 20.046875 5.234375 20.039062 5.242188 20.035156 5.253906 L 19.855469 5.65625 C 19.84375 5.671875 19.851562 5.695312 19.871094 5.707031 C 20.058594 5.808594 20.230469 5.855469 20.441406 5.855469 C 20.832031 5.855469 21.050781 5.667969 21.242188 5.167969 L 22.167969 2.742188 C 22.171875 2.730469 22.171875 2.714844 22.164062 2.703125 C 22.15625 2.695312 22.144531 2.6875 22.132812 2.6875 L 21.578125 2.6875 C 21.558594 2.6875 21.546875 2.699219 21.539062 2.714844 L 20.972656 4.363281 L 20.347656 2.710938 C 20.34375 2.695312 20.328125 2.6875 20.3125 2.6875 Z M 18.214844 2.683594 L 17.683594 2.683594 C 17.660156 2.683594 17.644531 2.703125 17.644531 2.722656 L 17.644531 5.085938 C 17.644531 5.105469 17.660156 5.125 17.683594 5.125 L 18.214844 5.125 C 18.238281 5.125 18.253906 5.105469 18.253906 5.085938 L 18.253906 2.722656 C 18.253906 2.714844 18.25 2.703125 18.242188 2.695312 C 18.234375 2.6875 18.226562 2.683594 18.214844 2.683594 Z M 17.953125 1.609375 C 17.742188 1.609375 17.570312 1.785156 17.570312 1.996094 C 17.570312 2.210938 17.742188 2.386719 17.953125 2.386719 C 18.164062 2.386719 18.335938 2.210938 18.335938 1.996094 C 18.335938 1.785156 18.164062 1.609375 17.953125 1.609375 Z M 22.625 3.445312 C 22.414062 3.445312 22.25 3.273438 22.25 3.0625 C 22.25 2.855469 22.414062 2.679688 22.625 2.679688 C 22.835938 2.679688 23 2.851562 23 3.0625 C 23 3.269531 22.835938 3.445312 22.625 3.445312 Z M 22.625 2.71875 C 22.433594 2.71875 22.289062 2.871094 22.289062 3.0625 C 22.289062 3.253906 22.433594 3.40625 22.625 3.40625 C 22.816406 3.40625 22.960938 3.25 22.960938 3.0625 C 22.960938 2.871094 22.816406 2.71875 22.625 2.71875 Z M 22.710938 3.101562 L 22.816406 3.25 L 22.726562 3.25 L 22.628906 3.113281 L 22.546875 3.113281 L 22.546875 3.25 L 22.472656 3.25 L 22.472656 2.851562 L 22.648438 2.851562 C 22.738281 2.851562 22.800781 2.898438 22.800781 2.976562 C 22.800781 3.042969 22.761719 3.082031 22.710938 3.101562 Z M 22.644531 2.917969 L 22.546875 2.917969 L 22.546875 3.046875 L 22.644531 3.046875 C 22.695312 3.046875 22.722656 3.023438 22.722656 2.984375 C 22.722656 2.941406 22.695312 2.917969 22.644531 2.917969 Z M 22.644531 2.917969 "/>
</g>
</svg>
